<svg id="_002-twitter" data-name="002-twitter" xmlns="http://www.w3.org/2000/svg" width="24.154" height="19.625" viewBox="0 0 24.154 19.625">
  <g id="Grupo_687" data-name="Grupo 687" transform="translate(0 0)">
    <path id="Caminho_342" data-name="Caminho 342" d="M24.154,50.323a10.324,10.324,0,0,1-2.853.782,4.924,4.924,0,0,0,2.178-2.737,9.9,9.9,0,0,1-3.14,1.2,4.951,4.951,0,0,0-8.566,3.386,5.1,5.1,0,0,0,.115,1.129A14.016,14.016,0,0,1,1.682,48.9,4.953,4.953,0,0,0,3.2,55.521a4.89,4.89,0,0,1-2.237-.61v.054a4.974,4.974,0,0,0,3.967,4.865,4.942,4.942,0,0,1-1.3.163,4.378,4.378,0,0,1-.937-.085,5,5,0,0,0,4.627,3.449,9.95,9.95,0,0,1-6.14,2.112A9.274,9.274,0,0,1,0,65.4a13.941,13.941,0,0,0,7.6,2.222A14,14,0,0,0,21.69,53.534c0-.219-.008-.43-.018-.64A9.879,9.879,0,0,0,24.154,50.323Z" transform="translate(0 -48)"/>
  </g>
</svg>
