<svg id="_004-email" data-name="004-email" xmlns="http://www.w3.org/2000/svg" width="28.641" height="21.816" viewBox="0 0 28.641 21.816">
  <g id="Grupo_688" data-name="Grupo 688" transform="translate(0 0)">
    <path id="Caminho_346" data-name="Caminho 346" d="M26.124,61H2.517A2.522,2.522,0,0,0,0,63.517V80.3a2.521,2.521,0,0,0,2.517,2.517H26.124A2.521,2.521,0,0,0,28.641,80.3V63.517A2.521,2.521,0,0,0,26.124,61Zm-.348,1.678-11.4,11.4-11.5-11.4ZM1.678,79.951V63.857L9.76,71.869Zm1.187,1.187,8.087-8.087,2.834,2.809a.839.839,0,0,0,1.184,0l2.763-2.763,8.043,8.043Zm24.1-1.187-8.043-8.043,8.043-8.043Z" transform="translate(0 -61)"/>
  </g>
</svg>
