<svg id="_003-instagram" data-name="003-instagram" xmlns="http://www.w3.org/2000/svg" width="26.923" height="26.928" viewBox="0 0 26.923 26.928">
  <path id="Caminho_343" data-name="Caminho 343" d="M27.3,7.917a9.839,9.839,0,0,0-.626-3.267A6.9,6.9,0,0,0,22.738.71,9.865,9.865,0,0,0,19.471.084C18.03.016,17.572,0,13.916,0S9.8.016,8.366.079A9.842,9.842,0,0,0,5.1.7,6.57,6.57,0,0,0,2.711,2.262,6.63,6.63,0,0,0,1.159,4.645,9.866,9.866,0,0,0,.533,7.912C.465,9.353.449,9.811.449,13.467s.016,4.114.079,5.55a9.839,9.839,0,0,0,.626,3.267,6.9,6.9,0,0,0,3.94,3.94,9.866,9.866,0,0,0,3.267.626c1.436.063,1.894.079,5.55.079s4.114-.016,5.55-.079a9.837,9.837,0,0,0,3.267-.626,6.888,6.888,0,0,0,3.94-3.94,9.872,9.872,0,0,0,.626-3.267c.063-1.436.079-1.894.079-5.55S27.367,9.353,27.3,7.917ZM24.879,18.911a7.381,7.381,0,0,1-.463,2.5,4.467,4.467,0,0,1-2.557,2.557,7.407,7.407,0,0,1-2.5.463c-1.42.063-1.846.079-5.439.079s-4.024-.016-5.439-.079a7.377,7.377,0,0,1-2.5-.463,4.144,4.144,0,0,1-1.546-1,4.186,4.186,0,0,1-1-1.546,7.408,7.408,0,0,1-.463-2.5c-.063-1.42-.079-1.846-.079-5.439s.016-4.024.079-5.439a7.377,7.377,0,0,1,.463-2.5,4.093,4.093,0,0,1,1.01-1.547,4.18,4.18,0,0,1,1.546-1,7.412,7.412,0,0,1,2.5-.463c1.42-.063,1.847-.079,5.439-.079s4.024.016,5.439.079a7.381,7.381,0,0,1,2.5.463,4.141,4.141,0,0,1,1.546,1,4.186,4.186,0,0,1,1,1.547,7.411,7.411,0,0,1,.463,2.5c.063,1.42.079,1.846.079,5.439S24.942,17.491,24.879,18.911Zm0,0" transform="translate(-0.449 0)"/>
  <path id="Caminho_344" data-name="Caminho 344" d="M131.867,124.5a6.917,6.917,0,1,0,6.918,6.917A6.919,6.919,0,0,0,131.867,124.5Zm0,11.4a4.487,4.487,0,1,1,4.487-4.487A4.488,4.488,0,0,1,131.867,135.9Zm0,0" transform="translate(-118.4 -117.951)"/>
  <path id="Caminho_345" data-name="Caminho 345" d="M365.679,90.216a1.615,1.615,0,1,1-1.615-1.615A1.615,1.615,0,0,1,365.679,90.216Zm0,0" transform="translate(-343.406 -83.941)"/>
</svg>
