<svg xmlns="http://www.w3.org/2000/svg" width="820.915" height="834.729" viewBox="0 0 820.915 834.729">
  <g id="Grupo_15" data-name="Grupo 15" transform="matrix(-0.602, 0.799, -0.799, -0.602, 1215.762, 327.228)">
    <g id="Grupo_14" data-name="Grupo 14" transform="translate(165.45 195.289)">
      <path id="Caminho_2" data-name="Caminho 2" d="M223.513,213.252c14.146-8.525,24.477-7.724,31.607,2.51L243.8,222.581c-3.365-4.1-8.06-3.891-14.629.068-8.489,5.117-9.136,9.984-5.85,15.441,3.322,5.507,8.01,7.227,16.445,2.142,6.569-3.959,8.918-8.06,6.834-13l11.318-6.819c5.75,11.139,1.659,20.694-12.487,29.222-15.562,9.376-25.979,7.18-33.224-4.845C204.994,232.816,207.951,222.628,223.513,213.252Z" transform="translate(-33.172 -156.896)" fill="none" stroke="#c6a74d" stroke-miterlimit="10" stroke-width="1"/>
      <path id="Caminho_3" data-name="Caminho 3" d="M224.432,233.633c-5.357-12.916-.915-22.55,15.873-29.5,16.732-6.937,26.762-3.236,32.094,9.626,5.353,12.92.9,22.682-15.83,29.619C239.779,250.329,229.806,246.606,224.432,233.633Zm35.974-14.908c-2.414-5.832-6.523-8.346-15.9-4.463-9.322,3.866-10.524,8.514-8.085,14.4,2.464,5.943,6.68,8.41,15.945,4.57C261.689,229.371,262.844,224.611,260.405,218.725Z" transform="translate(2.406 -174.245)" fill="none" stroke="#c6a74d" stroke-miterlimit="10" stroke-width="1"/>
      <path id="Caminho_4" data-name="Caminho 4" d="M252.467,227.684c.765,3.1,3.865,4.091,15.094,1.323,9.8-2.417,11.865-3.9,11.3-6.19-.637-2.578-2.5-2.485-13.842-.172-17.93,3.69-25.568,2.539-27.842-6.687-2.178-8.822,5.843-14.264,21.252-18.065s25.285-2.224,27.77,7.86l-12.605,3.107c-.8-3.265-4.9-3.107-13.892-.887-8.539,2.106-10.316,3.272-9.766,5.507.579,2.349,2.6,2.156,12.852.111,16-3.154,26.036-4.6,28.593,5.772,2.686,10.885-6.333,15.723-21.974,19.582-16.442,4.059-26.648,3.594-29.544-8.149Z" transform="translate(39.859 -186.311)" fill="none" stroke="#c6a74d" stroke-miterlimit="10" stroke-width="1"/>
      <path id="Caminho_5" data-name="Caminho 5" d="M303.029,204.21l-18.788,1.867,3,30.177-12.916,1.287-3-30.177-18.788,1.867L251.45,198.31l50.492-5.021Z" transform="translate(77.533 -193.289)" fill="none" stroke="#c6a74d" stroke-miterlimit="10" stroke-width="1"/>
      <path id="Caminho_6" data-name="Caminho 6" d="M303.308,227.108l-21.295-.511-3.73,8-14.336-.347,20.225-40.826,18.577.447,18.176,41.752-14.272-.343Zm-3.9-9.419-6.133-14.962-6.9,14.65Z" transform="translate(109.727 -192.954)" fill="none" stroke="#c6a74d" stroke-miterlimit="10" stroke-width="1"/>
      <path id="Caminho_7" data-name="Caminho 7" d="M313.929,216.573l25.675,6.565-5.528,21.616-8.064-2.063.79-6.194c-4.624,3.082-10.942,4.205-19.406,2.042-14.754-3.773-21.831-13.016-18.337-26.68,3.465-13.553,14.114-18.262,30.581-14.053,16.013,4.094,22.668,12.133,20.637,22.7l-12.809-3.276c.072-2.664-1.97-6.6-10.545-8.79-11.1-2.839-14.157,2.228-15.384,7.03-1.245,4.86-1.066,11.3,9.973,14.125,7.835,2.006,12.28.34,13.41-2.417l-12.866-3.29Z" transform="translate(172.143 -185.491)" fill="none" stroke="#c6a74d" stroke-miterlimit="10" stroke-width="1"/>
      <path id="Caminho_8" data-name="Caminho 8" d="M305.094,213.938c5.457-12.88,15.441-16.471,32.179-9.38,16.685,7.069,21.076,16.817,15.645,29.641-5.46,12.88-15.541,16.556-32.226,9.487C303.953,236.595,299.612,226.872,305.094,213.938Zm35.866,15.2c2.464-5.818,1.377-10.51-7.974-14.468-9.29-3.937-13.449-1.534-15.938,4.334-2.51,5.925-1.313,10.663,7.928,14.575C334.269,237.514,338.471,235,340.96,229.135Z" transform="translate(209.94 -173.491)" fill="none" stroke="#c6a74d" stroke-miterlimit="10" stroke-width="1"/>
      <path id="Caminho_9" data-name="Caminho 9" d="M357,253.788l-5.632,9.415L314.9,241.4l21.2-35.444,11.139,6.662-15.566,26.025Z" transform="translate(240.984 -160.658)" fill="none" stroke="#c6a74d" stroke-miterlimit="10" stroke-width="1"/>
      <path id="Caminho_10" data-name="Caminho 10" d="M377.518,260.523C368.754,271.5,357.3,270.8,349.276,264.4L325.528,245.43l25.782-32.273,23.748,18.967C383.079,238.532,386.286,249.553,377.518,260.523Zm-10.145-8.1c5.525-6.916,1.8-10.953-2.625-14.49l-10.145-8.1-12.079,15.123,10.141,8.1C357.092,256.6,361.852,259.34,367.373,252.424Z" transform="translate(268.351 -142.111)" fill="none" stroke="#c6a74d" stroke-miterlimit="10" stroke-width="1"/>
      <path id="Caminho_11" data-name="Caminho 11" d="M372.375,269.269,359.1,252.605l-8.532,2.271-8.936-11.218,44.3-10.7,11.589,14.54L377.156,288.25l-8.9-11.171Zm4.72-9.04,7.542-14.311-15.67,4.109Z" transform="translate(309.835 -91.093)" fill="none" stroke="#c6a74d" stroke-miterlimit="10" stroke-width="1"/>
      <path id="Caminho_12" data-name="Caminho 12" d="M358.532,285.274c-9.176-15.68-7.152-25.886,5.267-33.156l17.769-10.4,6.555,11.2-17.769,10.4c-4.373,2.564-8.1,6.587-2.353,16.417s11.135,8.514,15.462,5.982l17.768-10.4,6.555,11.2-17.769,10.4C377.645,304.158,367.68,300.9,358.532,285.274Z" transform="translate(338.697 -68.528)" fill="none" stroke="#c6a74d" stroke-miterlimit="10" stroke-width="1"/>
      <path id="Caminho_13" data-name="Caminho 13" d="M384.249,282.432l9.8,24.624-20.73,8.25-3.075-7.731,5.475-3c-5.214-1.927-9.845-6.376-13.074-14.49-5.629-14.146-2.321-25.31,10.785-30.528,12.995-5.171,23.068.665,29.354,16.456,6.111,15.355,3.529,25.468-6.211,30.041l-4.888-12.283c2.192-1.509,4.173-5.471.9-13.7-4.23-10.638-10.13-10.134-14.736-8.3-4.663,1.856-9.762,5.793-5.553,16.377,2.993,7.513,6.955,10.127,9.848,9.419l-4.909-12.337Z" transform="translate(357.175 -27.327)" fill="none" stroke="#c6a74d" stroke-miterlimit="10" stroke-width="1"/>
      <path id="Caminho_14" data-name="Caminho 14" d="M397.2,286.554l-5.965,1.452,7.263,29.82-8.6,2.1L382.634,290.1l-5.965,1.452,7.263,29.819-9.805,2.389-10.338-42.435,40.143-9.78,10.334,42.439-9.805,2.389Z" transform="translate(366.907 8.293)" fill="none" stroke="#c6a74d" stroke-miterlimit="10" stroke-width="1"/>
      <path id="Caminho_15" data-name="Caminho 15" d="M410.281,318.47c.49,16.517-5.278,25.128-17.7,26.322l-.393-13.213c5.225-.922,7.345-5.117,7.12-12.784-.293-9.909-4.22-12.862-10.588-12.676-6.43.193-10.231,3.433-9.941,13.284.229,7.667,2.653,11.725,7.985,12.337l.39,13.213c-12.53-.454-18.852-8.711-19.342-25.228-.537-18.166,6.483-26.165,20.522-26.583C402.314,292.73,409.745,300.3,410.281,318.47Z" transform="translate(377.2 63.88)" fill="none" stroke="#c6a74d" stroke-miterlimit="10" stroke-width="1"/>
      <path id="Caminho_16" data-name="Caminho 16" d="M391.647,308.831c13.889,1.641,20.121,10.223,17.987,28.271-2.128,17.99-10.256,24.931-24.087,23.3-13.889-1.641-20.233-10.3-18.108-28.285C369.577,314.063,377.7,307.179,391.647,308.831Zm-4.574,38.677c6.269.74,10.467-1.616,11.661-11.693,1.184-10.023-2.285-13.345-8.614-14.092-6.386-.755-10.6,1.716-11.779,11.679C377.154,343.421,380.741,346.757,387.074,347.508Z" transform="translate(375.273 103.724)" fill="none" stroke="#c6a74d" stroke-miterlimit="10" stroke-width="1"/>
      <path id="Caminho_17" data-name="Caminho 17" d="M384.369,336.6c-3.072-.844-5.46,1.377-8.529,12.53-2.678,9.734-2.392,12.258-.118,12.887,2.56.7,3.39-.965,6.912-12,5.539-17.454,10.277-23.558,19.439-21.037,8.768,2.414,9.6,12.069,5.385,27.381s-10.409,23.15-20.429,20.4l3.447-12.523c3.243.894,5.107-2.757,7.567-11.693,2.331-8.478,2.181-10.6-.039-11.21-2.335-.644-3.15,1.212-6.376,11.16-5.06,15.505-8.707,24.971-19.009,22.135-10.81-2.975-10.631-13.209-6.354-28.743,4.495-16.335,9.88-25.017,21.548-21.806Z" transform="translate(366.263 141.926)" fill="none" stroke="#c6a74d" stroke-miterlimit="10" stroke-width="1"/>
      <path id="Caminho_18" data-name="Caminho 18" d="M379.31,386.3l7.563-17.3-27.8-12.144,5.2-11.9,27.8,12.144,7.56-17.3,10.055,4.395-20.315,46.5Z" transform="translate(354.769 184.093)" fill="none" stroke="#c6a74d" stroke-miterlimit="10" stroke-width="1"/>
      <path id="Caminho_19" data-name="Caminho 19" d="M366.185,384.747l10.892-18.3-5.135-7.177,7.334-12.315L404.923,384.6l-9.5,15.966-45.289-4.649,7.3-12.265Zm10.12,1.22,16.045,2-9.376-13.2Z" transform="translate(331.72 202.545)" fill="none" stroke="#c6a74d" stroke-miterlimit="10" stroke-width="1"/>
      <path id="Caminho_20" data-name="Caminho 20" d="M370.1,394.312l-18.3,19.135L335.7,398.042l5.746-6.007,5,3.722c-.411-5.535,1.705-11.589,7.734-17.9,10.521-10.992,22.035-12.627,32.219-2.886,10.1,9.662,8.983,21.241-2.761,33.513-11.411,11.929-21.67,13.785-29.873,6.837l9.129-9.548c2.281,1.37,6.708,1.52,12.823-4.87,7.906-8.268,5-13.417,1.416-16.843-3.623-3.465-9.319-6.465-17.186,1.759-5.586,5.839-6.315,10.528-4.47,12.862l9.172-9.59Z" transform="translate(294.545 258.165)" fill="none" stroke="#c6a74d" stroke-miterlimit="10" stroke-width="1"/>
      <path id="Caminho_21" data-name="Caminho 21" d="M372.387,387.884c8.564,11.057,6.809,21.516-7.559,32.641-14.321,11.089-24.971,10.155-33.492-.852-8.564-11.06-6.833-21.648,7.484-32.737C353.192,375.812,363.791,376.781,372.387,387.884ZM341.6,411.724c3.865,4.992,8.489,6.337,16.51.125,7.978-6.179,7.917-10.978,4.016-16.017-3.937-5.085-8.654-6.358-16.585-.222C337.561,401.79,337.7,406.686,341.6,411.724Z" transform="translate(269.945 285.237)" fill="none" stroke="#c6a74d" stroke-miterlimit="10" stroke-width="1"/>
      <path id="Caminho_22" data-name="Caminho 22" d="M318.82,416.69l-5.468-9.508,36.81-21.177L370.745,421.8,359.5,428.265l-15.119-26.279Z" transform="translate(236.986 303.128)" fill="none" stroke="#c6a74d" stroke-miterlimit="10" stroke-width="1"/>
      <path id="Caminho_23" data-name="Caminho 23" d="M303.577,430.154c-5.289-13.013.922-22.668,10.434-26.533l28.157-11.436,15.541,38.273-28.157,11.435C320.04,445.759,308.858,443.167,303.577,430.154Zm12.026-4.885c3.333,8.2,8.675,6.923,13.925,4.788l12.026-4.885-7.284-17.93-12.029,4.885C316.993,414.259,312.27,417.066,315.6,425.269Z" transform="translate(206.812 319.047)" fill="none" stroke="#c6a74d" stroke-miterlimit="10" stroke-width="1"/>
      <path id="Caminho_24" data-name="Caminho 24" d="M296.237,413.669l21.037-3.369,2.217-8.543,14.16-2.271-12.466,43.837-18.359,2.936L277.36,408.5l14.1-2.26Zm5.553,8.553,8.75,13.6,4.126-15.662Z" transform="translate(144.274 337.857)" fill="none" stroke="#c6a74d" stroke-miterlimit="10" stroke-width="1"/>
      <path id="Caminho_25" data-name="Caminho 25" d="M289.619,401.828c18.165-.3,26.068,6.469,26.308,20.862l.343,20.587-12.977.214L302.95,422.9c-.086-5.071-1.763-10.3-13.149-10.105S276.914,418.327,277,423.337l.343,20.586-12.977.215-.34-20.583C263.783,409.223,271.511,402.132,289.619,401.828Z" transform="translate(109.905 343.862)" fill="none" stroke="#c6a74d" stroke-miterlimit="10" stroke-width="1"/>
      <path id="Caminho_26" data-name="Caminho 26" d="M274.989,425.78,248.728,422.3l2.929-22.11,8.25,1.094-.057,6.24c4.23-3.6,10.366-5.471,19.024-4.323,15.094,2,23.215,10.335,21.362,24.316-1.838,13.86-11.851,19.8-28.693,17.565-16.381-2.167-23.937-9.362-23.172-20.093l13.1,1.738c.243,2.653,2.736,6.312,11.511,7.477,11.346,1.5,13.785-3.887,14.436-8.8.662-4.974-.282-11.35-11.568-12.845-8.017-1.059-12.233,1.119-13.027,3.991l13.159,1.741Z" transform="translate(69.463 339.67)" fill="none" stroke="#c6a74d" stroke-miterlimit="10" stroke-width="1"/>
      <path id="Caminho_27" data-name="Caminho 27" d="M266.225,435.046l1.645-5.914-29.562-8.225,2.371-8.532,29.565,8.232,1.645-5.915-29.562-8.228,2.7-9.723L287.1,408.452l-11.075,39.8-42.074-11.711,2.7-9.723Z" transform="translate(32.47 330.783)" fill="none" stroke="#c6a74d" stroke-miterlimit="10" stroke-width="1"/>
      <path id="Caminho_28" data-name="Caminho 28" d="M230.1,431.767c-14.64-7.67-19.321-16.918-14.271-28.332l11.707,6.136c-1.756,5.006.862,8.911,7.656,12.473,8.782,4.6,13.281,2.628,16.238-3.018,2.986-5.7,2.024-10.6-6.7-15.173-6.794-3.562-11.525-3.44-14.668.908l-11.708-6.133c6.537-10.7,16.835-12.169,31.472-4.5,16.1,8.435,19.632,18.48,13.109,30.924C256.443,437.442,246.2,440.2,230.1,431.767Z" transform="translate(-19.268 311.638)" fill="none" stroke="#c6a74d" stroke-miterlimit="10" stroke-width="1"/>
      <path id="Caminho_29" data-name="Caminho 29" d="M247.5,420.757c-8.264,11.289-18.806,12.5-33.474,1.759-14.626-10.7-16.671-21.2-8.443-32.44,8.264-11.293,18.924-12.562,33.545-1.856C253.8,398.958,255.8,409.418,247.5,420.757Zm-31.439-23.011c-3.73,5.1-3.744,9.912,4.448,15.909,8.146,5.961,12.748,4.577,16.514-.568,3.8-5.192,3.719-10.081-4.377-16.006C224.5,391.117,219.827,392.6,216.058,397.746Z" transform="translate(-52.997 289.867)" fill="none" stroke="#c6a74d" stroke-miterlimit="10" stroke-width="1"/>
      <path id="Caminho_30" data-name="Caminho 30" d="M228.866,402.552c2.242-2.264,1.477-5.432-6.737-13.57-7.166-7.1-9.5-8.089-11.168-6.415-1.867,1.888-.815,3.426,7.062,11.9,12.494,13.374,15.487,20.494,8.8,27.241-6.394,6.451-15.215,2.446-26.49-8.722s-15.069-20.415-7.76-27.788l9.219,9.133c-2.367,2.389-.1,5.8,6.483,12.319,6.243,6.186,8.164,7.095,9.784,5.46,1.7-1.716.486-3.336-6.6-11.024-11.028-12-17.486-19.817-9.97-27.4,7.888-7.963,16.714-2.789,28.153,8.55,12.026,11.915,16.95,20.862,8.435,29.451Z" transform="translate(-83.773 261.492)" fill="none" stroke="#c6a74d" stroke-miterlimit="10" stroke-width="1"/>
      <path id="Caminho_31" data-name="Caminho 31" d="M186.183,364.728l11.4,15.051,24.177-18.312,7.835,10.345-24.173,18.316,11.4,15.051-8.75,6.626-30.642-40.451Z" transform="translate(-113.12 239.921)" fill="none" stroke="#c6a74d" stroke-miterlimit="10" stroke-width="1"/>
      <path id="Caminho_32" data-name="Caminho 32" d="M200.919,365.269l10.656,18.437,8.768-.98,7.173,12.412-45.375,4.012-9.3-16.088L199,345.8l7.141,12.358Zm-6,8.239-9.573,13.027,16.1-1.738Z" transform="translate(-124.948 199.569)" fill="none" stroke="#c6a74d" stroke-miterlimit="10" stroke-width="1"/>
      <path id="Caminho_33" data-name="Caminho 33" d="M184.583,357.173l-7.72-25.335,21.327-6.5,2.425,7.956-5.7,2.539c5.031,2.353,9.272,7.163,11.815,15.512,4.438,14.557.215,25.4-13.267,29.508-13.37,4.073-22.918-2.575-27.867-18.823-4.817-15.8-1.405-25.654,8.675-29.4l3.848,12.641c-2.31,1.32-4.609,5.1-2.031,13.567,3.333,10.946,9.251,10.932,13.989,9.487,4.8-1.462,10.2-4.96,6.884-15.848-2.353-7.728-6.083-10.663-9.022-10.2L191.8,354.97Z" transform="translate(-149.174 146.861)" fill="none" stroke="#c6a74d" stroke-miterlimit="10" stroke-width="1"/>
      <path id="Caminho_34" data-name="Caminho 34" d="M185.622,363.222c-13.839,2.031-22.092-4.631-24.731-22.614-2.628-17.923,3.415-26.741,17.193-28.765,13.835-2.031,22.213,4.674,24.845,22.6C205.568,352.423,199.518,361.184,185.622,363.222Zm-5.657-38.534c-6.247.915-9.687,4.284-8.214,14.325,1.466,9.984,5.678,12.29,11.986,11.364,6.362-.933,9.787-4.42,8.332-14.343C190.6,326.051,186.273,323.762,179.965,324.688Z" transform="translate(-157.286 111.193)" fill="none" stroke="#c6a74d" stroke-miterlimit="10" stroke-width="1"/>
      <path id="Caminho_35" data-name="Caminho 35" d="M189.316,298.646l10.974-.182L201,340.931l-41.291.69-.215-12.977,30.316-.5Z" transform="translate(-159.339 77.631)" fill="none" stroke="#c6a74d" stroke-miterlimit="10" stroke-width="1"/>
      <path id="Caminho_36" data-name="Caminho 36" d="M186.187,283.539c13.935,1.752,19.321,11.886,18.037,22.074l-3.79,30.152-40.984-5.157,3.794-30.152C164.524,290.269,172.252,281.783,186.187,283.539Zm-1.62,12.88c-8.782-1.1-10.281,4.177-10.989,9.8l-1.62,12.88,19.2,2.417,1.62-12.88C193.489,303.013,193.35,297.524,184.567,296.419Z" transform="translate(-159.45 38.589)" fill="none" stroke="#c6a74d" stroke-miterlimit="10" stroke-width="1"/>
      <path id="Caminho_37" data-name="Caminho 37" d="M203.3,276.054l-7.327,19.993,6.369,6.1-4.931,13.456-32.151-32.262,6.394-17.447,45.364-3.791-4.913,13.4Zm-10.173.669-16.131,1,11.647,11.242Z" transform="translate(-144.489 -16.018)" fill="none" stroke="#c6a74d" stroke-miterlimit="10" stroke-width="1"/>
      <path id="Caminho_38" data-name="Caminho 38" d="M218.364,287.592c-8.639,15.981-18.409,19.55-31.071,12.709l-18.108-9.791,6.169-11.414,18.108,9.788c4.463,2.41,9.841,3.508,15.251-6.509s1.5-13.939-2.911-16.324l-18.108-9.787,6.168-11.418,18.112,9.787C224.583,261.449,226.975,271.662,218.364,287.592Z" transform="translate(-134.374 -60.483)" fill="none" stroke="#c6a74d" stroke-miterlimit="10" stroke-width="1"/>
      <path id="Caminho_39" data-name="Caminho 39" d="M201.951,259.177,217.9,238.008l17.822,13.428-5.01,6.648-5.414-3.118c1.062,5.457-.333,11.722-5.589,18.7-9.162,12.165-20.422,15.137-31.69,6.648-11.171-8.418-11.418-20.057-1.187-33.635,9.945-13.2,19.928-16.245,28.9-10.3l-7.956,10.56c-2.432-1.091-6.848-.722-12.176,6.351-6.891,9.144-3.393,13.921.565,16.907,4.009,3.018,10.023,5.335,16.878-3.765,4.867-6.458,5.042-11.2,2.936-13.31l-8,10.606Z" transform="translate(-108.084 -89.794)" fill="none" stroke="#c6a74d" stroke-miterlimit="10" stroke-width="1"/>
      <path id="Caminho_40" data-name="Caminho 40" d="M203.612,250.28l4.345,4.33,21.649-21.734,6.272,6.243-21.652,21.734,4.348,4.33,21.649-21.734,7.148,7.12L216.561,281.5l-29.254-29.144,30.806-30.928,7.148,7.12Z" transform="translate(-87.696 -120.811)" fill="none" stroke="#c6a74d" stroke-miterlimit="10" stroke-width="1"/>
    </g>
  </g>
</svg>
