<svg xmlns="http://www.w3.org/2000/svg" width="207.326" height="42.48" viewBox="0 0 207.326 42.48">
  <path id="Path_1230" data-name="Path 1230" d="M43.955,0H58.233L39.058-41.3H20.473L1.239,0H15.576l3.54-8.083h21.3ZM23.246-17.4,29.8-32.214,36.285-17.4Zm84.37-3.3V-41.3H94.636v20.591c0,5.015-1.593,10.325-12.98,10.325s-12.98-5.251-12.98-10.325V-41.3H55.7v20.591c0,14.4,7.788,21.3,25.96,21.3C99.769.59,107.616-6.372,107.616-20.709Zm27.848,5.959h13.275c-.413,2.95-4.307,5.664-12.39,5.664-11.387,0-13.157-6.2-13.157-11.21,0-4.956,1.711-10.62,13.157-10.62,8.85,0,11.8,3.3,12.39,5.9h13.216c-.649-10.738-9.086-16.874-25.606-16.874-16.992,0-26.137,7.2-26.137,21.181,0,14.1,9.145,21.3,24.367,21.3,8.732,0,14.573-2.655,18.29-6.785L153.636,0h8.319V-22.3H135.464Zm73.1-16.461V-41.3H164.9V0h43.66V-10.089h-30.68v-6.136h30.68v-8.85h-30.68v-6.136Z" transform="translate(-1.239 41.89)"/>
</svg>
